<mxfile host="drawio.corp.amazon.com" modified="2024-06-10T07:57:37.681Z" agent="Mozilla/5.0 (Macintosh; Intel Mac OS X 10_15_7) AppleWebKit/537.36 (KHTML, like Gecko) Chrome/125.0.0.0 Safari/537.36" etag="xhx8wTNId00f17yNal-I" version="21.7.4" type="device">
  <diagram name="Page-1" id="JZnJiHoyU6mkIqU945xj">
    <mxGraphModel dx="1060" dy="665" grid="1" gridSize="10" guides="1" tooltips="1" connect="1" arrows="1" fold="1" page="1" pageScale="1" pageWidth="1169" pageHeight="827" math="0" shadow="0">
      <root>
        <mxCell id="0" />
        <mxCell id="1" parent="0" />
        <mxCell id="QxTZykv19wxgnFOiDiN8-14" value="EventBridge Rule" style="sketch=0;outlineConnect=0;fontColor=#232F3E;gradientColor=none;fillColor=#B0084D;strokeColor=none;dashed=0;verticalLabelPosition=bottom;verticalAlign=top;align=center;html=1;fontSize=12;fontStyle=0;aspect=fixed;pointerEvents=1;shape=mxgraph.aws4.event_event_based;" parent="1" vertex="1">
          <mxGeometry x="390" y="268" width="78" height="78" as="geometry" />
        </mxCell>
        <mxCell id="QxTZykv19wxgnFOiDiN8-85" value="" style="endArrow=classic;html=1;rounded=0;entryX=0;entryY=0.5;entryDx=0;entryDy=0;entryPerimeter=0;" parent="1" source="QxTZykv19wxgnFOiDiN8-14" target="QxTZykv19wxgnFOiDiN8-81" edge="1">
          <mxGeometry width="50" height="50" relative="1" as="geometry">
            <mxPoint x="670" y="390" as="sourcePoint" />
            <mxPoint x="720" y="340" as="targetPoint" />
          </mxGeometry>
        </mxCell>
        <mxCell id="QxTZykv19wxgnFOiDiN8-116" value="" style="endArrow=classic;html=1;rounded=0;exitX=1;exitY=0.5;exitDx=0;exitDy=0;" parent="1" source="QxTZykv19wxgnFOiDiN8-29" edge="1">
          <mxGeometry width="50" height="50" relative="1" as="geometry">
            <mxPoint x="1280" y="590" as="sourcePoint" />
            <mxPoint x="1160" y="540" as="targetPoint" />
          </mxGeometry>
        </mxCell>
        <mxCell id="QxTZykv19wxgnFOiDiN8-115" value="" style="rounded=1;whiteSpace=wrap;html=1;fillColor=none;dashed=1;fontStyle=0" parent="1" vertex="1">
          <mxGeometry x="1175.75" y="479" width="284.25" height="131" as="geometry" />
        </mxCell>
        <mxCell id="QxTZykv19wxgnFOiDiN8-5" value="DynamoDB" style="sketch=0;points=[[0,0,0],[0.25,0,0],[0.5,0,0],[0.75,0,0],[1,0,0],[0,1,0],[0.25,1,0],[0.5,1,0],[0.75,1,0],[1,1,0],[0,0.25,0],[0,0.5,0],[0,0.75,0],[1,0.25,0],[1,0.5,0],[1,0.75,0]];outlineConnect=0;fontColor=#232F3E;gradientColor=#4D72F3;gradientDirection=north;fillColor=#3334B9;strokeColor=#ffffff;dashed=0;verticalLabelPosition=bottom;verticalAlign=top;align=center;html=1;fontSize=12;fontStyle=0;aspect=fixed;shape=mxgraph.aws4.resourceIcon;resIcon=mxgraph.aws4.dynamodb;" parent="1" vertex="1">
          <mxGeometry x="1175.75" y="268" width="78" height="78" as="geometry" />
        </mxCell>
        <mxCell id="QxTZykv19wxgnFOiDiN8-36" value="AWS Step Functions workflow" style="points=[[0,0],[0.25,0],[0.5,0],[0.75,0],[1,0],[1,0.25],[1,0.5],[1,0.75],[1,1],[0.75,1],[0.5,1],[0.25,1],[0,1],[0,0.75],[0,0.5],[0,0.25]];outlineConnect=0;gradientColor=none;html=1;whiteSpace=wrap;fontSize=12;fontStyle=0;container=1;pointerEvents=0;collapsible=0;recursiveResize=0;shape=mxgraph.aws4.group;grIcon=mxgraph.aws4.group_aws_step_functions_workflow;strokeColor=#CD2264;fillColor=none;verticalAlign=top;align=left;spacingLeft=30;fontColor=#CD2264;dashed=0;" parent="1" vertex="1">
          <mxGeometry x="760" y="400" width="333.5" height="260" as="geometry" />
        </mxCell>
        <mxCell id="QxTZykv19wxgnFOiDiN8-25" value="" style="rounded=1;whiteSpace=wrap;html=1;fillColor=none;dashed=1;" parent="QxTZykv19wxgnFOiDiN8-36" vertex="1">
          <mxGeometry x="84.25" y="50" width="200" height="40" as="geometry" />
        </mxCell>
        <mxCell id="QxTZykv19wxgnFOiDiN8-19" value="" style="sketch=0;points=[[0,0,0],[0.25,0,0],[0.5,0,0],[0.75,0,0],[1,0,0],[0,1,0],[0.25,1,0],[0.5,1,0],[0.75,1,0],[1,1,0],[0,0.25,0],[0,0.5,0],[0,0.75,0],[1,0.25,0],[1,0.5,0],[1,0.75,0]];outlineConnect=0;fontColor=#232F3E;gradientColor=#F78E04;gradientDirection=north;fillColor=#D05C17;strokeColor=#ffffff;dashed=0;verticalLabelPosition=middle;verticalAlign=middle;align=left;html=1;fontSize=12;fontStyle=0;aspect=fixed;shape=mxgraph.aws4.resourceIcon;resIcon=mxgraph.aws4.lambda;labelPosition=right;" parent="QxTZykv19wxgnFOiDiN8-36" vertex="1">
          <mxGeometry x="39.25" y="50" width="40" height="40" as="geometry" />
        </mxCell>
        <mxCell id="QxTZykv19wxgnFOiDiN8-21" value="Pre-update Metadata Catalog" style="text;html=1;align=center;verticalAlign=middle;resizable=0;points=[];autosize=1;strokeColor=none;fillColor=none;dashed=1;rotation=0;" parent="QxTZykv19wxgnFOiDiN8-36" vertex="1">
          <mxGeometry x="94.25" y="55" width="180" height="30" as="geometry" />
        </mxCell>
        <mxCell id="QxTZykv19wxgnFOiDiN8-29" value="" style="rounded=1;whiteSpace=wrap;html=1;fillColor=none;dashed=1;" parent="QxTZykv19wxgnFOiDiN8-36" vertex="1">
          <mxGeometry x="84.25" y="120" width="200" height="40" as="geometry" />
        </mxCell>
        <mxCell id="QxTZykv19wxgnFOiDiN8-30" value="" style="sketch=0;points=[[0,0,0],[0.25,0,0],[0.5,0,0],[0.75,0,0],[1,0,0],[0,1,0],[0.25,1,0],[0.5,1,0],[0.75,1,0],[1,1,0],[0,0.25,0],[0,0.5,0],[0,0.75,0],[1,0.25,0],[1,0.5,0],[1,0.75,0]];outlineConnect=0;fontColor=#232F3E;gradientColor=#F78E04;gradientDirection=north;fillColor=#D05C17;strokeColor=#ffffff;dashed=0;verticalLabelPosition=middle;verticalAlign=middle;align=left;html=1;fontSize=12;fontStyle=0;aspect=fixed;shape=mxgraph.aws4.resourceIcon;resIcon=mxgraph.aws4.lambda;labelPosition=right;" parent="QxTZykv19wxgnFOiDiN8-36" vertex="1">
          <mxGeometry x="39.25" y="120" width="40" height="40" as="geometry" />
        </mxCell>
        <mxCell id="QxTZykv19wxgnFOiDiN8-31" value="Execute Lambda Transformation" style="text;html=1;align=center;verticalAlign=middle;resizable=0;points=[];autosize=1;strokeColor=none;fillColor=none;dashed=1;rotation=0;" parent="QxTZykv19wxgnFOiDiN8-36" vertex="1">
          <mxGeometry x="84.25" y="125" width="200" height="30" as="geometry" />
        </mxCell>
        <mxCell id="QxTZykv19wxgnFOiDiN8-32" value="" style="rounded=1;whiteSpace=wrap;html=1;fillColor=none;dashed=1;" parent="QxTZykv19wxgnFOiDiN8-36" vertex="1">
          <mxGeometry x="84.25" y="190" width="200" height="40" as="geometry" />
        </mxCell>
        <mxCell id="QxTZykv19wxgnFOiDiN8-33" value="" style="sketch=0;points=[[0,0,0],[0.25,0,0],[0.5,0,0],[0.75,0,0],[1,0,0],[0,1,0],[0.25,1,0],[0.5,1,0],[0.75,1,0],[1,1,0],[0,0.25,0],[0,0.5,0],[0,0.75,0],[1,0.25,0],[1,0.5,0],[1,0.75,0]];outlineConnect=0;fontColor=#232F3E;gradientColor=#F78E04;gradientDirection=north;fillColor=#D05C17;strokeColor=#ffffff;dashed=0;verticalLabelPosition=middle;verticalAlign=middle;align=left;html=1;fontSize=12;fontStyle=0;aspect=fixed;shape=mxgraph.aws4.resourceIcon;resIcon=mxgraph.aws4.lambda;labelPosition=right;" parent="QxTZykv19wxgnFOiDiN8-36" vertex="1">
          <mxGeometry x="39.25" y="190" width="40" height="40" as="geometry" />
        </mxCell>
        <mxCell id="QxTZykv19wxgnFOiDiN8-34" value="Post-update Metadata Catalog" style="text;html=1;align=center;verticalAlign=middle;resizable=0;points=[];autosize=1;strokeColor=none;fillColor=none;dashed=1;rotation=0;" parent="QxTZykv19wxgnFOiDiN8-36" vertex="1">
          <mxGeometry x="89.25" y="195" width="190" height="30" as="geometry" />
        </mxCell>
        <mxCell id="QxTZykv19wxgnFOiDiN8-73" value="" style="endArrow=classic;html=1;rounded=0;entryX=0.428;entryY=-0.048;entryDx=0;entryDy=0;entryPerimeter=0;exitX=0.428;exitY=1.044;exitDx=0;exitDy=0;exitPerimeter=0;" parent="QxTZykv19wxgnFOiDiN8-36" edge="1">
          <mxGeometry width="50" height="50" relative="1" as="geometry">
            <mxPoint x="177.8499999999999" y="91.75999999999999" as="sourcePoint" />
            <mxPoint x="177.8499999999999" y="118.08000000000004" as="targetPoint" />
          </mxGeometry>
        </mxCell>
        <mxCell id="QxTZykv19wxgnFOiDiN8-74" value="" style="endArrow=classic;html=1;rounded=0;entryX=0.428;entryY=-0.048;entryDx=0;entryDy=0;entryPerimeter=0;exitX=0.428;exitY=1.044;exitDx=0;exitDy=0;exitPerimeter=0;" parent="QxTZykv19wxgnFOiDiN8-36" edge="1">
          <mxGeometry width="50" height="50" relative="1" as="geometry">
            <mxPoint x="177.75" y="164" as="sourcePoint" />
            <mxPoint x="177.75" y="190" as="targetPoint" />
          </mxGeometry>
        </mxCell>
        <mxCell id="QxTZykv19wxgnFOiDiN8-13" value="Lambda Routing" style="sketch=0;points=[[0,0,0],[0.25,0,0],[0.5,0,0],[0.75,0,0],[1,0,0],[0,1,0],[0.25,1,0],[0.5,1,0],[0.75,1,0],[1,1,0],[0,0.25,0],[0,0.5,0],[0,0.75,0],[1,0.25,0],[1,0.5,0],[1,0.75,0]];outlineConnect=0;fontColor=#232F3E;gradientColor=#F78E04;gradientDirection=north;fillColor=#D05C17;strokeColor=#ffffff;dashed=0;verticalLabelPosition=bottom;verticalAlign=top;align=center;html=1;fontSize=12;fontStyle=0;aspect=fixed;shape=mxgraph.aws4.resourceIcon;resIcon=mxgraph.aws4.lambda;" parent="1" vertex="1">
          <mxGeometry x="890" y="268" width="78" height="78" as="geometry" />
        </mxCell>
        <mxCell id="QxTZykv19wxgnFOiDiN8-72" value="" style="endArrow=classic;html=1;rounded=0;fontStyle=0" parent="1" target="QxTZykv19wxgnFOiDiN8-36" edge="1">
          <mxGeometry width="50" height="50" relative="1" as="geometry">
            <mxPoint x="927.75" y="370" as="sourcePoint" />
            <mxPoint x="1267.75" y="530" as="targetPoint" />
          </mxGeometry>
        </mxCell>
        <mxCell id="QxTZykv19wxgnFOiDiN8-81" value="&lt;div&gt;SQS Routing&lt;br&gt;SQS Routing DLQ&lt;br&gt;&lt;/div&gt;" style="sketch=0;points=[[0,0,0],[0.25,0,0],[0.5,0,0],[0.75,0,0],[1,0,0],[0,1,0],[0.25,1,0],[0.5,1,0],[0.75,1,0],[1,1,0],[0,0.25,0],[0,0.5,0],[0,0.75,0],[1,0.25,0],[1,0.5,0],[1,0.75,0]];outlineConnect=0;fontColor=#232F3E;gradientColor=#FF4F8B;gradientDirection=north;fillColor=#BC1356;strokeColor=#ffffff;dashed=0;verticalLabelPosition=bottom;verticalAlign=top;align=center;html=1;fontSize=12;fontStyle=0;aspect=fixed;shape=mxgraph.aws4.resourceIcon;resIcon=mxgraph.aws4.sqs;" parent="1" vertex="1">
          <mxGeometry x="600" y="268" width="78" height="78" as="geometry" />
        </mxCell>
        <mxCell id="QxTZykv19wxgnFOiDiN8-82" value="" style="sketch=0;points=[[0,0,0],[0.25,0,0],[0.5,0,0],[0.75,0,0],[1,0,0],[0,1,0],[0.25,1,0],[0.5,1,0],[0.75,1,0],[1,1,0],[0,0.25,0],[0,0.5,0],[0,0.75,0],[1,0.25,0],[1,0.5,0],[1,0.75,0]];outlineConnect=0;fontColor=#232F3E;gradientColor=#FF4F8B;gradientDirection=north;fillColor=#BC1356;strokeColor=#ffffff;dashed=0;verticalLabelPosition=bottom;verticalAlign=top;align=center;html=1;fontSize=12;fontStyle=0;aspect=fixed;shape=mxgraph.aws4.resourceIcon;resIcon=mxgraph.aws4.sqs;" parent="1" vertex="1">
          <mxGeometry x="610" y="258" width="78" height="78" as="geometry" />
        </mxCell>
        <mxCell id="QxTZykv19wxgnFOiDiN8-87" value="" style="endArrow=classic;html=1;rounded=0;entryX=0;entryY=0.5;entryDx=0;entryDy=0;entryPerimeter=0;fontStyle=0" parent="1" target="QxTZykv19wxgnFOiDiN8-13" edge="1">
          <mxGeometry width="50" height="50" relative="1" as="geometry">
            <mxPoint x="693.5" y="307" as="sourcePoint" />
            <mxPoint x="743.5" y="320" as="targetPoint" />
          </mxGeometry>
        </mxCell>
        <mxCell id="QxTZykv19wxgnFOiDiN8-88" value="" style="endArrow=classic;html=1;rounded=1;exitX=1;exitY=0.5;exitDx=0;exitDy=0;" parent="1" source="QxTZykv19wxgnFOiDiN8-25" target="QxTZykv19wxgnFOiDiN8-5" edge="1">
          <mxGeometry width="50" height="50" relative="1" as="geometry">
            <mxPoint x="735.75" y="470" as="sourcePoint" />
            <mxPoint x="785.75" y="420" as="targetPoint" />
            <Array as="points">
              <mxPoint x="1135.75" y="470" />
              <mxPoint x="1135.75" y="307" />
            </Array>
          </mxGeometry>
        </mxCell>
        <mxCell id="QxTZykv19wxgnFOiDiN8-89" value="" style="endArrow=classic;html=1;rounded=1;exitX=0.961;exitY=0.5;exitDx=0;exitDy=0;exitPerimeter=0;entryX=0;entryY=0.5;entryDx=0;entryDy=0;entryPerimeter=0;" parent="1" source="QxTZykv19wxgnFOiDiN8-34" target="QxTZykv19wxgnFOiDiN8-5" edge="1">
          <mxGeometry width="50" height="50" relative="1" as="geometry">
            <mxPoint x="985.75" y="550" as="sourcePoint" />
            <mxPoint x="1035.75" y="500" as="targetPoint" />
            <Array as="points">
              <mxPoint x="1135.75" y="610" />
              <mxPoint x="1135.75" y="307" />
            </Array>
          </mxGeometry>
        </mxCell>
        <mxCell id="QxTZykv19wxgnFOiDiN8-107" value="&lt;font color=&quot;#000000&quot;&gt;Staged Data&lt;/font&gt;" style="sketch=0;aspect=fixed;pointerEvents=1;shadow=0;dashed=0;html=1;strokeColor=#006EAF;labelPosition=center;verticalLabelPosition=bottom;verticalAlign=top;align=center;fillColor=#1ba1e2;shape=mxgraph.mscae.enterprise.document;fontColor=#ffffff;fontStyle=0" parent="1" vertex="1">
          <mxGeometry x="1194.75" y="510" width="40" height="50" as="geometry" />
        </mxCell>
        <mxCell id="QxTZykv19wxgnFOiDiN8-108" value="s3://stage-bucket//{team}/{dataset}/{stage}" style="sketch=0;points=[[0,0,0],[0.25,0,0],[0.5,0,0],[0.75,0,0],[1,0,0],[0,1,0],[0.25,1,0],[0.5,1,0],[0.75,1,0],[1,1,0],[0,0.25,0],[0,0.5,0],[0,0.75,0],[1,0.25,0],[1,0.5,0],[1,0.75,0]];outlineConnect=0;fontColor=#232F3E;gradientColor=#60A337;gradientDirection=north;fillColor=#277116;strokeColor=#ffffff;dashed=0;verticalLabelPosition=bottom;verticalAlign=top;align=center;html=1;fontSize=12;fontStyle=0;aspect=fixed;shape=mxgraph.aws4.resourceIcon;resIcon=mxgraph.aws4.s3;" parent="1" vertex="1">
          <mxGeometry x="1300" y="496" width="78" height="78" as="geometry" />
        </mxCell>
        <mxCell id="QxTZykv19wxgnFOiDiN8-113" value="" style="endArrow=classic;html=1;rounded=0;fontStyle=0" parent="1" target="QxTZykv19wxgnFOiDiN8-108" edge="1">
          <mxGeometry width="50" height="50" relative="1" as="geometry">
            <mxPoint x="1236" y="535" as="sourcePoint" />
            <mxPoint x="1320" y="510" as="targetPoint" />
          </mxGeometry>
        </mxCell>
      </root>
    </mxGraphModel>
  </diagram>
</mxfile>
